<svg width="577" height="216" viewBox="0 0 577 216" fill="none" xmlns="http://www.w3.org/2000/svg">
<path d="M86.951 39.4684C89.5478 34.1961 94.9145 30.8571 100.792 30.8571H551.46C562.889 30.8571 570.35 42.8501 565.3 53.103L489.307 207.389C486.71 212.661 481.343 216 475.466 216H24.798C13.3689 216 5.90724 204.007 10.9573 193.754L86.951 39.4684Z" fill="white"/>
<g filter="url(#filter0_d_0_1084)">
<path d="M514.543 13.8857H347.914L332.486 49.3714H514.543L492.171 32.1081L514.543 13.8857Z" fill="#BAB9BA"/>
</g>
<path d="M49.3949 7.63513C52.1627 2.90617 57.231 0 62.7104 0H336.436C348.353 0 355.771 12.9366 349.751 23.222L331.691 54.0792C328.923 58.8081 323.855 61.7143 318.375 61.7143H44.65C32.7324 61.7143 25.3146 48.7777 31.3345 38.4923L49.3949 7.63513Z" fill="url(#paint0_linear_0_1084)"/>
<defs>
<filter id="filter0_d_0_1084" x="317.057" y="4.62857" width="212.914" height="66.3428" filterUnits="userSpaceOnUse" color-interpolation-filters="sRGB">
<feFlood flood-opacity="0" result="BackgroundImageFix"/>
<feColorMatrix in="SourceAlpha" type="matrix" values="0 0 0 0 0 0 0 0 0 0 0 0 0 0 0 0 0 0 127 0" result="hardAlpha"/>
<feOffset dy="6.17143"/>
<feGaussianBlur stdDeviation="7.71429"/>
<feComposite in2="hardAlpha" operator="out"/>
<feColorMatrix type="matrix" values="0 0 0 0 0 0 0 0 0 0 0 0 0 0 0 0 0 0 0.15 0"/>
<feBlend mode="normal" in2="BackgroundImageFix" result="effect1_dropShadow_0_1084"/>
<feBlend mode="normal" in="SourceGraphic" in2="effect1_dropShadow_0_1084" result="shape"/>
</filter>
<linearGradient id="paint0_linear_0_1084" x1="94.1027" y1="12.479" x2="233.69" y2="126.032" gradientUnits="userSpaceOnUse">
<stop stop-color="#371B62" stop-opacity="0.98"/>
<stop offset="1" stop-color="#EF0935"/>
</linearGradient>
</defs>
</svg>
